# xmcd
#
# Track frame offsets:
#	150
#	12930
#	24612
#	39392
#	50375
#	63313
#	72593
#	84581
#	92598
#	102108
#	113904
#	124331
#
# Disc length: 1815 seconds
#
# Revision: 0
# Processed by: cddbd v1.4PL0 Copyright (c) Steve Scherf et al.
# Submitted via: EasyCDDAExtractor 4.6.9.1
#
DISCID=9b07150c
DTITLE=Porter Wagoner - The Cold Hard Facts Of Life
DYEAR=1967
DGENRE=Country
TTITLE0=The First Mrs. Jones
TTITLE1=Words And Music
TTITLE2=The Cold Hard Facts Of Life
TTITLE3=Sleep
TTITLE4=Hundred Dollar Funeral
TTITLE5=If I Could Only Start Over
TTITLE6=Tragic Romance
TTITLE7=Try Being Lonely
TTITLE8=I'll Get Ahead Someday
TTITLE9=I Just Can't Let You Say Goodbye
TTITLE10=Shopworn
TTITLE11=Julie
EXTD=
EXTT0=
EXTT1=
EXTT2=
EXTT3=
EXTT4=
EXTT5=
EXTT6=
EXTT7=
EXTT8=
EXTT9=
EXTT10=
EXTT11=
PLAYORDER=
